<svg xmlns="http://www.w3.org/2000/svg" viewBox="30 30 180 180"><polygon points="120,40 200,120 40,120" fill="#0F4C5C"/><polygon points="40,120 93.3,120 120,200" fill="#159AAB"/><polygon points="93.3,120 146.7,120 120,200" fill="#B9572A"/><polygon points="146.7,120 200,120 120,200" fill="#95A0AA"/><polygon points="120,75 135,90 120,105 105,90" fill="none" stroke="#F7F3EC" stroke-width="3.2"/><polygon points="120,84 126,90 120,96 114,90" fill="#F7F3EC"/><polyline points="86,128 78,138 84,138 76,148" fill="none" stroke="#fff" stroke-width="3.2" stroke-linecap="round" stroke-linejoin="round"/><ellipse cx="120" cy="139" rx="7" ry="12" fill="#fff"/><line x1="120" y1="129" x2="115" y2="149" stroke="#B9572A" stroke-width="2.2" stroke-linecap="round"/><line x1="120" y1="129" x2="125" y2="149" stroke="#B9572A" stroke-width="2.2" stroke-linecap="round"/><polygon points="151,135 165,135 163,148 153,148" fill="#fff"/><path d="M155,133 C153,130 157,128 155,126" fill="none" stroke="#fff" stroke-width="1.8" stroke-linecap="round"/><path d="M161,133 C163,130 159,128 161,126" fill="none" stroke="#fff" stroke-width="1.8" stroke-linecap="round"/><polygon points="120,40 200,120 120,200 40,120" fill="none" stroke="#D9CFB8" stroke-width="6"/><line x1="40" y1="120" x2="200" y2="120" stroke="#F7F3EC" stroke-width="3"/><line x1="93.3" y1="120" x2="120" y2="200" stroke="#F7F3EC" stroke-width="2.5"/><line x1="146.7" y1="120" x2="120" y2="200" stroke="#F7F3EC" stroke-width="2.5"/></svg>
