<svg xmlns="http://www.w3.org/2000/svg" viewBox="30 30 180 180"><polygon points="120,40 200,120 40,120" fill="#0F4C5C"/><polygon points="40,120 93.3,120 120,200" fill="#159AAB"/><polygon points="93.3,120 146.7,120 120,200" fill="#B9572A"/><polygon points="146.7,120 200,120 120,200" fill="#95A0AA"/><polygon points="120,75 135,90 120,105 105,90" fill="none" stroke="#F7F3EC" stroke-width="3.2"/><polygon points="120,84 126,90 120,96 114,90" fill="#F7F3EC"/><polygon points="120,40 200,120 120,200 40,120" fill="none" stroke="#D9CFB8" stroke-width="6"/><line x1="40" y1="120" x2="200" y2="120" stroke="#F7F3EC" stroke-width="3"/><line x1="93.3" y1="120" x2="120" y2="200" stroke="#F7F3EC" stroke-width="2.5"/><line x1="146.7" y1="120" x2="120" y2="200" stroke="#F7F3EC" stroke-width="2.5"/></svg>
